# xmcd
#
# Track frame offsets: 
#        150
#        16035
#        34353
#        53364
#        63958
#        82380
#        94450
#        108933
#        120372
#        132725
#        158484
#        173164
#        189570
#        200358
#        219122
#        234961
#        251910
#        261892
#        284468
#        298654
#        309475
#
# Disc length: 4264 seconds
#
# Revision: 0
# Processed by: cddbd v1.5.2PL0 Copyright (c) Steve Scherf et al.
# Submitted via: ExactAudioCopy v0.99pb5
#
DISCID=2a10a615
DTITLE=Grin  - 1+1 and All Out (1972-1973)  FLAC
DYEAR=1900
DGENRE=
TTITLE0=White Lies
TTITLE1=Please Don't Hide
TTITLE2=Slippery Fingers
TTITLE3=Moon Tears
TTITLE4=End Unkind
TTITLE5=Sometimes
TTITLE6=Lost A Number
TTITLE7=Hi Hello Home
TTITLE8=Just A Poem
TTITLE9=Soft Fun
TTITLE10=Sad Letter
TTITLE11=Heavy Chevy
TTITLE12=Don't Be Long
TTITLE13=Love Again
TTITLE14=She Ain't Right
TTITLE15=Love Or Else
TTITLE16=Ain't Love Nice
TTITLE17=Heart On Fire
TTITLE18=All Out
TTITLE19=Rusty Gun
TTITLE20=Just To Have You (bonus track)
EXTD=
EXTT0=
EXTT1=
EXTT2=
EXTT3=
EXTT4=
EXTT5=
EXTT6=
EXTT7=
EXTT8=
EXTT9=
EXTT10=
EXTT11=
EXTT12=
EXTT13=
EXTT14=
EXTT15=
EXTT16=
EXTT17=
EXTT18=
EXTT19=
EXTT20=
PLAYORDER=
